<svg xmlns="http://www.w3.org/2000/svg" viewBox="0 0 36.67 36.67"><defs><style>.cls-1{fill:#3e5c9a;}.cls-2{fill:#fff;}</style></defs><g id="Layer_2" data-name="Layer 2"><g id="Layer_1-2" data-name="Layer 1"><path class="cls-1" d="M28.2,36.67H8.47A8.47,8.47,0,0,1,0,28.2V8.47A8.47,8.47,0,0,1,8.47,0H28.2a8.47,8.47,0,0,1,8.47,8.47V28.2a8.47,8.47,0,0,1-8.47,8.47"/><path class="cls-2" d="M15.54,29.42H20V18.24h3.12l.33-3.74H20V12.37c0-.89.18-1.23,1-1.23h2.42V7.25H20.36c-3.32,0-4.82,1.46-4.82,4.26v3H13.22v3.79h2.32Z"/></g></g></svg>