<svg xmlns="http://www.w3.org/2000/svg" xmlns:xlink="http://www.w3.org/1999/xlink" viewBox="0 0 73.31 73.31"><defs><style>.cls-1{fill:none;}.cls-2{clip-path:url(#clip-path);}.cls-3{fill:url(#radial-gradient);}.cls-4{fill:#fff;}</style><clipPath id="clip-path" transform="translate(18.32 18.32)"><rect class="cls-1" width="36.67" height="36.67" rx="8.47"/></clipPath><radialGradient id="radial-gradient" cx="-244.91" cy="174.4" r="1" gradientTransform="matrix(67.79, 0, 0, -67.79, 16595.11, 11841.91)" gradientUnits="userSpaceOnUse"><stop offset="0" stop-color="#f5ec53"/><stop offset="0.24" stop-color="#e48244"/><stop offset="0.4" stop-color="#d15668"/><stop offset="0.49" stop-color="#c84278"/><stop offset="1" stop-color="#192cfa"/></radialGradient></defs><g id="Layer_2" data-name="Layer 2"><g id="Layer_1-2" data-name="Layer 1"><g class="cls-2"><rect class="cls-3" x="-7.59" y="-7.59" width="51.85" height="51.84" transform="translate(10.73 36.14) rotate(-43.88)"/></g><path class="cls-4" d="M18.33,10.09c2.69,0,3,0,4.06.06a5.61,5.61,0,0,1,1.87.35,3.29,3.29,0,0,1,1.91,1.91,5.54,5.54,0,0,1,.35,1.86c0,1.06.05,1.38.05,4.06s0,3-.05,4.07a5.54,5.54,0,0,1-.35,1.86,3.29,3.29,0,0,1-1.91,1.91,5.61,5.61,0,0,1-1.87.35c-1.06,0-1.37.06-4.06.06s-3,0-4.06-.06a5.67,5.67,0,0,1-1.87-.35,3.06,3.06,0,0,1-1.15-.75,3.1,3.1,0,0,1-.75-1.16,5.29,5.29,0,0,1-.35-1.86c-.05-1.06-.06-1.38-.06-4.07s0-3,.06-4.06a5.29,5.29,0,0,1,.35-1.86,3.1,3.1,0,0,1,.75-1.16,3.06,3.06,0,0,1,1.15-.75,5.67,5.67,0,0,1,1.87-.35c1.06-.05,1.38-.06,4.06-.06m0-1.81c-2.73,0-3.07,0-4.14.06a7.36,7.36,0,0,0-2.44.47A5,5,0,0,0,10,10a4.84,4.84,0,0,0-1.16,1.78,7.36,7.36,0,0,0-.47,2.44c-.05,1.07-.06,1.41-.06,4.14s0,3.08.06,4.15a7.36,7.36,0,0,0,.47,2.44A4.84,4.84,0,0,0,10,26.7a5,5,0,0,0,1.78,1.16,7.36,7.36,0,0,0,2.44.47c1.07,0,1.41.06,4.14.06s3.07,0,4.15-.06a7.36,7.36,0,0,0,2.44-.47,5.15,5.15,0,0,0,2.94-2.94,7.14,7.14,0,0,0,.46-2.44c.05-1.07.06-1.42.06-4.15s0-3.07-.06-4.14a7.14,7.14,0,0,0-.46-2.44,5.15,5.15,0,0,0-2.94-2.94,7.36,7.36,0,0,0-2.44-.47c-1.08-.05-1.42-.06-4.15-.06" transform="translate(18.32 18.32)"/><path class="cls-4" d="M18.33,13.17a5.17,5.17,0,1,0,5.16,5.16,5.16,5.16,0,0,0-5.16-5.16m0,8.51a3.35,3.35,0,1,1,3.35-3.35,3.35,3.35,0,0,1-3.35,3.35" transform="translate(18.32 18.32)"/><path class="cls-4" d="M24.91,13a1.21,1.21,0,1,1-1.21-1.21A1.21,1.21,0,0,1,24.91,13" transform="translate(18.32 18.32)"/></g></g></svg>