<svg xmlns="http://www.w3.org/2000/svg" viewBox="0 0 43.1 43.1"><defs><style>.cls-1{fill:#117bb8;}.cls-2{fill:#fff;}</style></defs><g id="Layer_2" data-name="Layer 2"><g id="Layer_1-2" data-name="Layer 1"><path class="cls-1" d="M34.63,43.1H8.47A8.47,8.47,0,0,1,0,34.63V8.47A8.47,8.47,0,0,1,8.47,0H34.63A8.47,8.47,0,0,1,43.1,8.47V34.63a8.47,8.47,0,0,1-8.47,8.47"/><rect class="cls-2" x="11.78" y="16.74" width="4.46" height="14.41"/><path class="cls-2" d="M14,14.86a2.66,2.66,0,1,0-2.64-2.66A2.65,2.65,0,0,0,14,14.86"/><path class="cls-2" d="M23.37,23.59c0-2,.93-3.23,2.71-3.23s2.43,1.16,2.43,3.23v7.56H33V22c0-3.86-2.19-5.72-5.24-5.72a5,5,0,0,0-4.34,2.38v-2H19.09V31.15h4.28Z"/></g></g></svg>