<svg xmlns="http://www.w3.org/2000/svg" viewBox="0 0 68.95 68.96"><defs><style>.cls-1{fill:#47422d;}.cls-2{fill:#ffd302;}</style></defs><g id="Layer_2" data-name="Layer 2"><g id="Layer_1-2" data-name="Layer 1"><path class="cls-1" d="M41.86,14.78c-2.07,0-4.07,0-6.07,0A3.66,3.66,0,0,1,32.16,12,4.61,4.61,0,0,1,32,10.74c0-2.49,0-5,0-7.46V2.47H4.27c-1.44,0-1.81.37-1.81,1.84V54.78c0,1.51.36,1.87,1.85,1.87H28a4.61,4.61,0,0,1,.75,0,1.21,1.21,0,0,1,0,2.4,3.83,3.83,0,0,1-.68,0h-24A3.76,3.76,0,0,1,0,55V4.11A3.76,3.76,0,0,1,4.07,0q14.4,0,28.8,0a1.78,1.78,0,0,1,1.52.72c3.13,3.92,6.27,7.82,9.38,11.76A2.66,2.66,0,0,1,44.3,14c.05,3.49,0,7,0,10.46a2.7,2.7,0,0,1-.08.75,1.09,1.09,0,0,1-1.19.82,1.08,1.08,0,0,1-1.11-.85,4.24,4.24,0,0,1-.07-.88c0-3.12,0-6.24,0-9.48m-1.34-2.46-6-7.54c0,2.22,0,4.24,0,6.26a1.21,1.21,0,0,0,1.24,1.27c1.54,0,3.09,0,4.79,0"/><path class="cls-1" d="M19.08,27.92c3.76,0,7.52,0,11.28,0a2.27,2.27,0,0,1,1.21.33,1.17,1.17,0,0,1-.33,2,2.54,2.54,0,0,1-.87.12H7.62a1.25,1.25,0,1,1,0-2.46c1.92,0,3.83,0,5.74,0h5.74"/><path class="cls-1" d="M16,38.59H7.62C6.54,38.58,6,37.9,6.27,37a1.2,1.2,0,0,1,1.32-.84h5.34c3.78,0,7.57,0,11.35,0a1.91,1.91,0,0,1,1.27.45,1.19,1.19,0,0,1-.84,2,4.15,4.15,0,0,1-.61,0H16"/><path class="cls-1" d="M16,46.8c-2.78,0-5.56,0-8.34,0-1.08,0-1.64-.68-1.36-1.6a1.22,1.22,0,0,1,1.33-.85H24.27c.56,0,1.11,0,1.41.62a1.2,1.2,0,0,1-1,1.82,4.1,4.1,0,0,1-.61,0H16"/><path class="cls-1" d="M22.12,22.17H13.79c-.89,0-1.27-.29-1.38-1a1.17,1.17,0,0,1,1.08-1.44H30.37c.57,0,1.15,0,1.46.63a1.2,1.2,0,0,1-1,1.82,4.87,4.87,0,0,1-.54,0H22.12"/><path class="cls-1" d="M12.32,8.63H7.67Q6.19,8.61,6.2,7.4c0-.79.52-1.23,1.48-1.23H17c1.22,0,1.88,1,1.25,1.86A1.68,1.68,0,0,1,17,8.6c-1.57.07-3.14,0-4.71,0"/><path class="cls-2" d="M59.15,54.08c1.21,1.17,2.44,2.35,3.65,3.55q2.58,2.55,5.14,5.12a3.59,3.59,0,0,1,0,5,3.54,3.54,0,0,1-4.81.49,8.07,8.07,0,0,1-.87-.78l-7.74-7.73a5.41,5.41,0,0,1-.43-.58c-8,5.09-17.71,1.43-21.85-4.69a16,16,0,0,1,22.49-22c6,4.28,9.44,13.57,4.42,21.63M32.09,44.62c0,4.21,1,7.12,3,9.63a13.65,13.65,0,0,0,17.92,2.59c1-.68,1.38-.63,2.25.23L64,65.76a3.42,3.42,0,0,0,.62.52A1,1,0,0,0,66,66.16a2,2,0,0,0,.34-1.28c0-.3-.35-.62-.6-.87L57.25,55.5c-1.11-1.1-1.14-1.26-.32-2.55a13.61,13.61,0,0,0-2.68-17.74A12.87,12.87,0,0,0,42.8,32.36,13.14,13.14,0,0,0,32.09,44.62"/><path class="cls-2" d="M40.58,44.25c-.92.73-1.85,1.45-2.77,2.19a1.2,1.2,0,0,1-2-.68,1.65,1.65,0,0,1,.44-1.2,12.86,12.86,0,0,1,7.43-3.76,13,13,0,0,1,11.2,3.71A1.26,1.26,0,0,1,55.29,46c-.37.87-1.29,1-2.09.32S51.74,45.19,51,44.63a4.3,4.3,0,0,0-.61-.32c.15,3.76-1.69,6.13-4.71,6.18a5,5,0,0,1-4.93-6.1l-.16-.14m5,3.77a2.46,2.46,0,1,0-2.44-2.48A2.42,2.42,0,0,0,45.56,48"/></g></g></svg>