<svg xmlns="http://www.w3.org/2000/svg" viewBox="0 0 63.32 62"><defs><style>.cls-1{fill:#47422d;}.cls-2{fill:#ffd302;}</style></defs><g id="Layer_2" data-name="Layer 2"><g id="Layer_1-2" data-name="Layer 1"><path class="cls-1" d="M41.86,14.78c-2.07,0-4.07,0-6.07,0A3.66,3.66,0,0,1,32.16,12,4.61,4.61,0,0,1,32,10.74c0-2.49,0-5,0-7.46V2.47H4.27c-1.44,0-1.81.37-1.81,1.84V54.78c0,1.51.36,1.87,1.85,1.87H28a4.61,4.61,0,0,1,.75,0,1.21,1.21,0,0,1,0,2.4,3.83,3.83,0,0,1-.68,0h-24A3.76,3.76,0,0,1,0,55V4.11A3.76,3.76,0,0,1,4.07,0q14.4,0,28.8,0a1.78,1.78,0,0,1,1.52.72c3.13,3.92,6.27,7.82,9.38,11.76A2.66,2.66,0,0,1,44.3,14c.05,3.49,0,7,0,10.46a2.7,2.7,0,0,1-.08.75,1.09,1.09,0,0,1-1.19.82,1.08,1.08,0,0,1-1.11-.85,4.24,4.24,0,0,1-.07-.88c0-3.12,0-6.24,0-9.48m-1.34-2.46-6-7.54c0,2.22,0,4.24,0,6.26a1.21,1.21,0,0,0,1.24,1.27c1.54,0,3.09,0,4.79,0"/><path class="cls-1" d="M19.08,27.92c3.76,0,7.52,0,11.28,0a2.27,2.27,0,0,1,1.21.33,1.17,1.17,0,0,1-.33,2,2.54,2.54,0,0,1-.87.12H7.62a1.25,1.25,0,1,1,0-2.46c1.92,0,3.83,0,5.74,0h5.74"/><path class="cls-1" d="M16,38.59H7.62C6.54,38.58,6,37.9,6.27,37a1.2,1.2,0,0,1,1.32-.84h5.34c3.78,0,7.57,0,11.35,0a1.91,1.91,0,0,1,1.27.45,1.19,1.19,0,0,1-.84,2,4.15,4.15,0,0,1-.61,0H16"/><path class="cls-1" d="M16,46.8c-2.78,0-5.56,0-8.34,0-1.08,0-1.64-.68-1.36-1.6a1.22,1.22,0,0,1,1.33-.85H24.27c.56,0,1.11,0,1.41.62a1.2,1.2,0,0,1-1,1.82,4.1,4.1,0,0,1-.61,0H16"/><path class="cls-1" d="M22.12,22.17H13.79c-.89,0-1.27-.29-1.38-1a1.17,1.17,0,0,1,1.08-1.44H30.37c.57,0,1.15,0,1.46.63a1.2,1.2,0,0,1-1,1.82,4.87,4.87,0,0,1-.54,0H22.12"/><path class="cls-1" d="M12.32,8.63H7.67c-1,0-1.47-.42-1.47-1.23s.52-1.23,1.48-1.23H17c1.22,0,1.88,1,1.25,1.86A1.68,1.68,0,0,1,17,8.6c-1.57.07-3.14,0-4.71,0"/><path class="cls-2" d="M31.32,45.15a15.14,15.14,0,0,0,3.54,9.76,14.72,14.72,0,0,0,9.06,5.23,14.55,14.55,0,0,0,11.81-3,14.85,14.85,0,0,0,5.91-12.55,13.6,13.6,0,0,0-.58-3.58,3.15,3.15,0,0,1-.11-.44.83.83,0,0,1,.58-1,.8.8,0,0,1,1,.57,16.51,16.51,0,0,1-.87,12.21,16.72,16.72,0,0,1-16.76,9.5,16.35,16.35,0,0,1-9.52-4.1,16,16,0,0,1-5-7.91A16.82,16.82,0,0,1,43.84,28.6a16.68,16.68,0,0,1,7.53.5.85.85,0,1,1-.44,1.62,2,2,0,0,1-.23-.06,15.08,15.08,0,0,0-6.12-.49,14.8,14.8,0,0,0-7.25,3,15,15,0,0,0-5.88,10.19c0,.15-.05.3-.06.45,0,.47-.05.95-.07,1.37"/><path class="cls-2" d="M46.16,56.87A11.79,11.79,0,0,1,34.9,46.44a11.28,11.28,0,0,1,2.66-8.8,11.52,11.52,0,0,1,9.21-4.22,3.17,3.17,0,0,1,.69.07.84.84,0,0,1,.64,1,.76.76,0,0,1-.89.65,9.53,9.53,0,0,0-5,1,10,10,0,0,0-4.53,13.69A10,10,0,0,0,52,53.59a9.68,9.68,0,0,0,4.48-6.9,17.75,17.75,0,0,0,.12-2.19c0-.57.28-.93.78-1a.85.85,0,0,1,.86.86A11.3,11.3,0,0,1,56.07,52a11.47,11.47,0,0,1-5.89,4.33,12.51,12.51,0,0,1-4,.58"/><path class="cls-2" d="M51.59,37.29c0-.4,0-.8,0-1.19a1.16,1.16,0,0,1,.35-.88q2.41-2.4,4.82-4.81a.89.89,0,0,1,1-.27.86.86,0,0,1,.52.9c0,.68,0,1.35,0,2,0,.26.09.34.35.33.69,0,1.39,0,2.09,0a.81.81,0,0,1,.85.53.86.86,0,0,1-.25,1l-4.84,4.83a1.22,1.22,0,0,1-.91.37c-.8,0-1.59,0-2.38,0a.89.89,0,0,0-.73.3l-4.87,4.86c-.17.16-.33.33-.5.48a.83.83,0,0,1-1.06,0,.75.75,0,0,1-.15-1.09c.32-.39.7-.74,1.06-1.1,1.46-1.47,2.93-2.92,4.39-4.4a1.08,1.08,0,0,0,.25-.6c0-.43,0-.86,0-1.29m5-4.3a1.7,1.7,0,0,0-.21.13c-1,1-2,2-3,3a.72.72,0,0,0-.14.41c0,.51,0,1,0,1.54,0,.26.07.37.36.36.5,0,1,0,1.5,0a.93.93,0,0,0,.54-.22c.79-.76,1.56-1.54,2.33-2.31l.8-.83H57.63a.88.88,0,0,1-1-1c0-.34,0-.67,0-1.09"/><path class="cls-2" d="M47,51.85c-4.47-.05-7.59-3.51-7.09-7.48a6.59,6.59,0,0,1,5.15-5.75,7.08,7.08,0,0,1,1.45-.16.79.79,0,0,1,.82.59.68.68,0,0,1-.26.83,1.6,1.6,0,0,1-.75.22,4.89,4.89,0,0,0-4.11,2.52,5,5,0,0,0,5,7.51,5,5,0,0,0,4.38-4.86c0-.72.55-1.11,1.15-.87a.84.84,0,0,1,.51.88A6.61,6.61,0,0,1,51.18,50,6.52,6.52,0,0,1,47,51.85"/></g></g></svg>