<svg xmlns="http://www.w3.org/2000/svg" viewBox="0 0 63.57 62.25"><defs><style>.cls-1{fill:#47422d;}.cls-2{fill:#ffd302;}.cls-3{fill:none;stroke:#ffd302;stroke-miterlimit:10;stroke-width:0.5px;}</style></defs><g id="Layer_2" data-name="Layer 2"><g id="Layer_1-2" data-name="Layer 1"><path class="cls-1" d="M41.86,14.78c-2.07,0-4.07,0-6.07,0A3.66,3.66,0,0,1,32.16,12,4.61,4.61,0,0,1,32,10.74c0-2.49,0-5,0-7.46V2.47H4.27c-1.44,0-1.81.37-1.81,1.84V54.78c0,1.51.36,1.87,1.85,1.87H28a4.61,4.61,0,0,1,.75,0,1.21,1.21,0,0,1,0,2.4,3.83,3.83,0,0,1-.68,0h-24A3.76,3.76,0,0,1,0,55V4.11A3.76,3.76,0,0,1,4.07,0q14.4,0,28.8,0a1.78,1.78,0,0,1,1.52.72c3.13,3.92,6.27,7.82,9.38,11.76A2.66,2.66,0,0,1,44.3,14c.05,3.49,0,7,0,10.46a2.7,2.7,0,0,1-.08.75,1.09,1.09,0,0,1-1.19.82,1.08,1.08,0,0,1-1.11-.85,4.24,4.24,0,0,1-.07-.88c0-3.12,0-6.24,0-9.48m-1.34-2.46-6-7.54c0,2.22,0,4.24,0,6.26a1.21,1.21,0,0,0,1.24,1.27c1.54,0,3.09,0,4.79,0"/><path class="cls-1" d="M19.08,27.92c3.76,0,7.52,0,11.28,0a2.27,2.27,0,0,1,1.21.33,1.17,1.17,0,0,1-.33,2,2.54,2.54,0,0,1-.87.12H7.62a1.25,1.25,0,1,1,0-2.46c1.92,0,3.83,0,5.74,0h5.74"/><path class="cls-1" d="M16,38.59H7.62C6.54,38.58,6,37.9,6.27,37a1.2,1.2,0,0,1,1.32-.84h5.34c3.78,0,7.57,0,11.35,0a1.91,1.91,0,0,1,1.27.45,1.19,1.19,0,0,1-.84,2,4.15,4.15,0,0,1-.61,0H16"/><path class="cls-1" d="M16,46.8c-2.78,0-5.56,0-8.34,0-1.08,0-1.64-.68-1.36-1.6a1.22,1.22,0,0,1,1.33-.85H24.27c.56,0,1.11,0,1.41.62a1.2,1.2,0,0,1-1,1.82,4.1,4.1,0,0,1-.61,0H16"/><path class="cls-1" d="M22.12,22.17H13.79c-.89,0-1.27-.29-1.38-1a1.17,1.17,0,0,1,1.08-1.44H30.37c.57,0,1.15,0,1.46.63a1.2,1.2,0,0,1-1,1.82,4.87,4.87,0,0,1-.54,0H22.12"/><path class="cls-1" d="M12.32,8.63H7.67Q6.19,8.61,6.2,7.4c0-.79.52-1.23,1.48-1.23H17c1.22,0,1.88,1,1.25,1.86A1.68,1.68,0,0,1,17,8.6c-1.57.07-3.14,0-4.71,0"/><path class="cls-2" d="M31.32,45.15a15.14,15.14,0,0,0,3.54,9.76,14.72,14.72,0,0,0,9.06,5.23,14.55,14.55,0,0,0,11.81-3,14.85,14.85,0,0,0,5.91-12.55,13.6,13.6,0,0,0-.58-3.58,3.15,3.15,0,0,1-.11-.44.83.83,0,0,1,.58-1,.8.8,0,0,1,1,.57,16.51,16.51,0,0,1-.87,12.21,16.72,16.72,0,0,1-16.76,9.5,16.35,16.35,0,0,1-9.52-4.1,16,16,0,0,1-5-7.91A16.82,16.82,0,0,1,43.84,28.6a16.68,16.68,0,0,1,7.53.5.85.85,0,1,1-.44,1.62,2,2,0,0,1-.23-.06,15.08,15.08,0,0,0-6.12-.49,14.8,14.8,0,0,0-7.25,3,15,15,0,0,0-5.88,10.19c0,.15-.05.3-.06.45,0,.47-.05.95-.07,1.37"/><path class="cls-3" d="M31.32,45.15a15.14,15.14,0,0,0,3.54,9.76,14.72,14.72,0,0,0,9.06,5.23,14.55,14.55,0,0,0,11.81-3,14.85,14.85,0,0,0,5.91-12.55,13.6,13.6,0,0,0-.58-3.58,3.15,3.15,0,0,1-.11-.44.83.83,0,0,1,.58-1,.8.8,0,0,1,1,.57,16.51,16.51,0,0,1-.87,12.21,16.72,16.72,0,0,1-16.76,9.5,16.35,16.35,0,0,1-9.52-4.1,16,16,0,0,1-5-7.91A16.82,16.82,0,0,1,43.84,28.6a16.68,16.68,0,0,1,7.53.5.85.85,0,1,1-.44,1.62,2,2,0,0,1-.23-.06,15.08,15.08,0,0,0-6.12-.49,14.8,14.8,0,0,0-7.25,3,15,15,0,0,0-5.88,10.19c0,.15-.05.3-.06.45C31.36,44.25,31.34,44.73,31.32,45.15Z"/><path class="cls-2" d="M49.68,42.46l-1-.76c-.4.51-.78,1-1.18,1.49-.12.14-.31.32-.46.32a1,1,0,0,1-.63-.26.57.57,0,0,1,0-.77L47.65,41c-.26-.45.15-.82.11-1.28l-1.66.57c-.75.25-1.1,0-1-.8a6.9,6.9,0,0,1,3.29-5.36,22.49,22.49,0,0,1,2.57-1.23,1.13,1.13,0,0,0,.43-.31A15.75,15.75,0,0,1,61,26.65c.64-.12,1.28-.18,2-.28.07.38.14.71.18,1.06a15.81,15.81,0,0,1-3.3,11.74.79.79,0,0,0-.16.44,9.06,9.06,0,0,1-1.3,4.44,7.1,7.1,0,0,1-3.82,3,.61.61,0,0,1-.85-.65c0-.65.1-1.29.15-2-.45,0-.7.56-1.2.41l-1.2,1.54a.63.63,0,0,1-.72.22.56.56,0,0,1-.41-.55,1,1,0,0,1,.2-.53c.37-.51.76-1,1.16-1.52l-1-.76-1.33,1.7c-.34.44-.67.89-1,1.33a.64.64,0,1,1-1-.79c.76-1,1.53-2,2.33-3M62,27.78l-.4,0A14.41,14.41,0,0,0,54,31.62,18.68,18.68,0,0,0,49.05,40a.37.37,0,0,0,.16.49c1.18.9,2.36,1.82,3.52,2.74a.35.35,0,0,0,.49,0c.84-.59,1.73-1.14,2.53-1.79a15.49,15.49,0,0,0,6.14-10.87c.09-.92,0-1.85.06-2.8m-12,6.83a6.15,6.15,0,0,0-3.43,4.18l1.73-.6a.35.35,0,0,0,.18-.2c.51-1.11,1-2.23,1.52-3.38m8.23,6.54L55.31,43.4c-.05,0-.12.1-.13.16-.06.61-.11,1.23-.16,1.87a6,6,0,0,0,3.12-4.28"/><path class="cls-3" d="M49.68,42.46l-1-.76c-.4.51-.78,1-1.18,1.49-.12.14-.31.32-.46.32a1,1,0,0,1-.63-.26.57.57,0,0,1,0-.77L47.65,41c-.26-.45.15-.82.11-1.28l-1.66.57c-.75.25-1.1,0-1-.8a6.9,6.9,0,0,1,3.29-5.36,22.49,22.49,0,0,1,2.57-1.23,1.13,1.13,0,0,0,.43-.31A15.75,15.75,0,0,1,61,26.65c.64-.12,1.28-.18,2-.28.07.38.14.71.18,1.06a15.81,15.81,0,0,1-3.3,11.74.79.79,0,0,0-.16.44,9.06,9.06,0,0,1-1.3,4.44,7.1,7.1,0,0,1-3.82,3,.61.61,0,0,1-.85-.65c0-.65.1-1.29.15-2-.45,0-.7.56-1.2.41l-1.2,1.54a.63.63,0,0,1-.72.22.56.56,0,0,1-.41-.55,1,1,0,0,1,.2-.53c.37-.51.76-1,1.16-1.52l-1-.76-1.33,1.7c-.34.44-.67.89-1,1.33a.64.64,0,1,1-1-.79C48.11,44.48,48.88,43.49,49.68,42.46ZM62,27.78l-.4,0A14.41,14.41,0,0,0,54,31.62,18.68,18.68,0,0,0,49.05,40a.37.37,0,0,0,.16.49c1.18.9,2.36,1.82,3.52,2.74a.35.35,0,0,0,.49,0c.84-.59,1.73-1.14,2.53-1.79a15.49,15.49,0,0,0,6.14-10.87C62,29.66,61.93,28.73,62,27.78Zm-12,6.83a6.15,6.15,0,0,0-3.43,4.18l1.73-.6a.35.35,0,0,0,.18-.2C48.9,36.88,49.4,35.76,49.91,34.61Zm8.23,6.54L55.31,43.4c-.05,0-.12.1-.13.16-.06.61-.11,1.23-.16,1.87A6,6,0,0,0,58.14,41.15Z"/><path class="cls-2" d="M45,45.47A8.52,8.52,0,0,1,42.33,50a16.6,16.6,0,0,1-1.76,1.37.61.61,0,0,1-1-.11.64.64,0,0,1,.28-.92,9.94,9.94,0,0,0,2.72-2.57,6.6,6.6,0,0,0,1.13-2.72c.08-.52.34-.78.75-.71s.58.37.52.87c0,.08,0,.16,0,.24"/><path class="cls-3" d="M45,45.47A8.52,8.52,0,0,1,42.33,50a16.6,16.6,0,0,1-1.76,1.37.61.61,0,0,1-1-.11.64.64,0,0,1,.28-.92,9.94,9.94,0,0,0,2.72-2.57,6.6,6.6,0,0,0,1.13-2.72c.08-.52.34-.78.75-.71s.58.37.52.87C45,45.31,45,45.39,45,45.47Z"/><path class="cls-2" d="M50.18,48.19c.31.17.5.33.54.62a.65.65,0,0,1-.35.66,12.78,12.78,0,0,0-1.28.9,8.17,8.17,0,0,0-2.55,4.35,2.15,2.15,0,0,1-.11.36.63.63,0,0,1-.76.39.61.61,0,0,1-.42-.75,20,20,0,0,1,.82-2.4,8.37,8.37,0,0,1,3.11-3.63c.32-.2.67-.33,1-.5"/><path class="cls-3" d="M50.18,48.19c.31.17.5.33.54.62a.65.65,0,0,1-.35.66,12.78,12.78,0,0,0-1.28.9,8.17,8.17,0,0,0-2.55,4.35,2.15,2.15,0,0,1-.11.36.63.63,0,0,1-.76.39.61.61,0,0,1-.42-.75,20,20,0,0,1,.82-2.4,8.37,8.37,0,0,1,3.11-3.63C49.5,48.49,49.85,48.36,50.18,48.19Z"/><path class="cls-2" d="M55.67,37.64a2.52,2.52,0,1,1,2.93-2,2.52,2.52,0,0,1-2.93,2m1.71-2.27A1.26,1.26,0,1,0,54.9,35,1.31,1.31,0,0,0,56,36.41a1.28,1.28,0,0,0,1.43-1"/><path class="cls-3" d="M55.67,37.64a2.52,2.52,0,1,1,2.93-2A2.52,2.52,0,0,1,55.67,37.64Zm1.71-2.27A1.26,1.26,0,1,0,54.9,35,1.31,1.31,0,0,0,56,36.41,1.28,1.28,0,0,0,57.38,35.37Z"/><path class="cls-2" d="M54.26,39.94c-.11.56-.55.79-.92.54a20.77,20.77,0,0,1-1.67-1.3.54.54,0,0,1,0-.76.56.56,0,0,1,.76-.2c.58.42,1.15.87,1.7,1.33.12.1.13.32.16.39"/><path class="cls-3" d="M54.26,39.94c-.11.56-.55.79-.92.54a20.77,20.77,0,0,1-1.67-1.3.54.54,0,0,1,0-.76.56.56,0,0,1,.76-.2c.58.42,1.15.87,1.7,1.33C54.22,39.65,54.23,39.87,54.26,39.94Z"/></g></g></svg>