<svg xmlns="http://www.w3.org/2000/svg" viewBox="0 0 36.67 36.67"><defs><style>.cls-1{fill:#29a9e1;}.cls-2{fill:#fff;}</style></defs><g id="Layer_2" data-name="Layer 2"><g id="Layer_1-2" data-name="Layer 1"><path class="cls-1" d="M28.2,36.67H8.47A8.47,8.47,0,0,1,0,28.2V8.47A8.47,8.47,0,0,1,8.47,0H28.2a8.47,8.47,0,0,1,8.47,8.47V28.2a8.47,8.47,0,0,1-8.47,8.47"/><path class="cls-2" d="M8.57,24.47A11.4,11.4,0,0,0,26.1,14.35a8.24,8.24,0,0,0,2-2.08,7.76,7.76,0,0,1-2.3.63,4,4,0,0,0,1.76-2.21,8,8,0,0,1-2.54,1,4,4,0,0,0-6.83,3.66,11.4,11.4,0,0,1-8.26-4.19,4,4,0,0,0,1.24,5.35A4,4,0,0,1,9.35,16a4,4,0,0,0,3.22,4,4.07,4.07,0,0,1-1.81.07,4,4,0,0,0,3.74,2.78,8.07,8.07,0,0,1-5.93,1.66"/></g></g></svg>